<mxfile host="app.diagrams.net" agent="Mozilla/5.0 (Windows NT 10.0; Win64; x64) AppleWebKit/537.36 (KHTML, like Gecko) Chrome/131.0.0.0 Safari/537.36" version="26.0.9">
  <diagram name="Pagina-1" id="KQ_0qnfa0MyVe80baO7K">
    <mxGraphModel dx="1400" dy="696" grid="1" gridSize="10" guides="1" tooltips="1" connect="1" arrows="1" fold="1" page="1" pageScale="1" pageWidth="827" pageHeight="1169" math="0" shadow="0">
      <root>
        <mxCell id="0" />
        <mxCell id="1" parent="0" />
        <mxCell id="ZMU3HacW1rTmlklIENHG-33" value="" style="edgeStyle=orthogonalEdgeStyle;rounded=0;orthogonalLoop=1;jettySize=auto;html=1;" edge="1" parent="1" source="ZMU3HacW1rTmlklIENHG-1" target="ZMU3HacW1rTmlklIENHG-32">
          <mxGeometry relative="1" as="geometry" />
        </mxCell>
        <mxCell id="ZMU3HacW1rTmlklIENHG-1" value="START" style="ellipse;whiteSpace=wrap;html=1;" vertex="1" parent="1">
          <mxGeometry x="354" y="20" width="120" height="80" as="geometry" />
        </mxCell>
        <mxCell id="ZMU3HacW1rTmlklIENHG-14" value="" style="edgeStyle=orthogonalEdgeStyle;rounded=0;orthogonalLoop=1;jettySize=auto;html=1;" edge="1" parent="1" source="ZMU3HacW1rTmlklIENHG-2" target="ZMU3HacW1rTmlklIENHG-13">
          <mxGeometry relative="1" as="geometry" />
        </mxCell>
        <mxCell id="ZMU3HacW1rTmlklIENHG-2" value="POSITIVI = 0" style="whiteSpace=wrap;html=1;" vertex="1" parent="1">
          <mxGeometry x="354" y="320" width="120" height="60" as="geometry" />
        </mxCell>
        <mxCell id="ZMU3HacW1rTmlklIENHG-18" value="" style="edgeStyle=orthogonalEdgeStyle;rounded=0;orthogonalLoop=1;jettySize=auto;html=1;" edge="1" parent="1" source="ZMU3HacW1rTmlklIENHG-13" target="ZMU3HacW1rTmlklIENHG-17">
          <mxGeometry relative="1" as="geometry" />
        </mxCell>
        <mxCell id="ZMU3HacW1rTmlklIENHG-13" value="NEGATIVI = 0" style="whiteSpace=wrap;html=1;" vertex="1" parent="1">
          <mxGeometry x="354" y="460" width="120" height="60" as="geometry" />
        </mxCell>
        <mxCell id="ZMU3HacW1rTmlklIENHG-20" value="" style="edgeStyle=orthogonalEdgeStyle;rounded=0;orthogonalLoop=1;jettySize=auto;html=1;" edge="1" parent="1" source="ZMU3HacW1rTmlklIENHG-17" target="ZMU3HacW1rTmlklIENHG-19">
          <mxGeometry relative="1" as="geometry" />
        </mxCell>
        <mxCell id="ZMU3HacW1rTmlklIENHG-17" value="I = 1" style="whiteSpace=wrap;html=1;" vertex="1" parent="1">
          <mxGeometry x="354" y="600" width="120" height="60" as="geometry" />
        </mxCell>
        <mxCell id="ZMU3HacW1rTmlklIENHG-22" value="" style="edgeStyle=orthogonalEdgeStyle;rounded=0;orthogonalLoop=1;jettySize=auto;html=1;" edge="1" parent="1" source="ZMU3HacW1rTmlklIENHG-19" target="ZMU3HacW1rTmlklIENHG-21">
          <mxGeometry relative="1" as="geometry" />
        </mxCell>
        <mxCell id="ZMU3HacW1rTmlklIENHG-62" value="FALSE" style="edgeLabel;html=1;align=center;verticalAlign=middle;resizable=0;points=[];" vertex="1" connectable="0" parent="ZMU3HacW1rTmlklIENHG-22">
          <mxGeometry x="-0.2762" y="-2" relative="1" as="geometry">
            <mxPoint as="offset" />
          </mxGeometry>
        </mxCell>
        <mxCell id="ZMU3HacW1rTmlklIENHG-64" value="" style="edgeStyle=orthogonalEdgeStyle;rounded=0;orthogonalLoop=1;jettySize=auto;html=1;" edge="1" parent="1" source="ZMU3HacW1rTmlklIENHG-19" target="ZMU3HacW1rTmlklIENHG-63">
          <mxGeometry relative="1" as="geometry">
            <Array as="points">
              <mxPoint x="480" y="750" />
              <mxPoint x="480" y="690" />
            </Array>
          </mxGeometry>
        </mxCell>
        <mxCell id="ZMU3HacW1rTmlklIENHG-67" value="TRUE" style="edgeLabel;html=1;align=center;verticalAlign=middle;resizable=0;points=[];" vertex="1" connectable="0" parent="ZMU3HacW1rTmlklIENHG-64">
          <mxGeometry x="-0.7551" y="1" relative="1" as="geometry">
            <mxPoint as="offset" />
          </mxGeometry>
        </mxCell>
        <mxCell id="ZMU3HacW1rTmlklIENHG-19" value="I &amp;gt; 10" style="rhombus;whiteSpace=wrap;html=1;" vertex="1" parent="1">
          <mxGeometry x="374" y="730" width="80" height="80" as="geometry" />
        </mxCell>
        <mxCell id="ZMU3HacW1rTmlklIENHG-24" value="" style="edgeStyle=orthogonalEdgeStyle;rounded=0;orthogonalLoop=1;jettySize=auto;html=1;" edge="1" parent="1" source="ZMU3HacW1rTmlklIENHG-21" target="ZMU3HacW1rTmlklIENHG-23">
          <mxGeometry relative="1" as="geometry" />
        </mxCell>
        <mxCell id="ZMU3HacW1rTmlklIENHG-21" value="READ N" style="shape=parallelogram;perimeter=parallelogramPerimeter;whiteSpace=wrap;html=1;fixedSize=1;" vertex="1" parent="1">
          <mxGeometry x="354" y="900" width="120" height="60" as="geometry" />
        </mxCell>
        <mxCell id="ZMU3HacW1rTmlklIENHG-26" value="" style="edgeStyle=orthogonalEdgeStyle;rounded=0;orthogonalLoop=1;jettySize=auto;html=1;" edge="1" parent="1" source="ZMU3HacW1rTmlklIENHG-23" target="ZMU3HacW1rTmlklIENHG-25">
          <mxGeometry relative="1" as="geometry" />
        </mxCell>
        <mxCell id="ZMU3HacW1rTmlklIENHG-27" value="TRUE" style="edgeLabel;html=1;align=center;verticalAlign=middle;resizable=0;points=[];" vertex="1" connectable="0" parent="ZMU3HacW1rTmlklIENHG-26">
          <mxGeometry x="-0.26" y="-1" relative="1" as="geometry">
            <mxPoint as="offset" />
          </mxGeometry>
        </mxCell>
        <mxCell id="ZMU3HacW1rTmlklIENHG-48" value="" style="edgeStyle=orthogonalEdgeStyle;rounded=0;orthogonalLoop=1;jettySize=auto;html=1;" edge="1" parent="1" source="ZMU3HacW1rTmlklIENHG-23" target="ZMU3HacW1rTmlklIENHG-47">
          <mxGeometry relative="1" as="geometry" />
        </mxCell>
        <mxCell id="ZMU3HacW1rTmlklIENHG-23" value="N &amp;gt; 0" style="rhombus;whiteSpace=wrap;html=1;" vertex="1" parent="1">
          <mxGeometry x="374" y="1030" width="80" height="80" as="geometry" />
        </mxCell>
        <mxCell id="ZMU3HacW1rTmlklIENHG-29" value="" style="edgeStyle=orthogonalEdgeStyle;rounded=0;orthogonalLoop=1;jettySize=auto;html=1;" edge="1" parent="1" source="ZMU3HacW1rTmlklIENHG-25" target="ZMU3HacW1rTmlklIENHG-28">
          <mxGeometry relative="1" as="geometry" />
        </mxCell>
        <mxCell id="ZMU3HacW1rTmlklIENHG-25" value="POSITIVI += 1" style="whiteSpace=wrap;html=1;" vertex="1" parent="1">
          <mxGeometry x="514" y="1040" width="120" height="60" as="geometry" />
        </mxCell>
        <mxCell id="ZMU3HacW1rTmlklIENHG-31" value="" style="edgeStyle=orthogonalEdgeStyle;rounded=0;orthogonalLoop=1;jettySize=auto;html=1;" edge="1" parent="1" source="ZMU3HacW1rTmlklIENHG-28" target="ZMU3HacW1rTmlklIENHG-30">
          <mxGeometry relative="1" as="geometry" />
        </mxCell>
        <mxCell id="ZMU3HacW1rTmlklIENHG-38" value="FALSE" style="edgeLabel;html=1;align=center;verticalAlign=middle;resizable=0;points=[];" vertex="1" connectable="0" parent="ZMU3HacW1rTmlklIENHG-31">
          <mxGeometry x="-0.1195" relative="1" as="geometry">
            <mxPoint as="offset" />
          </mxGeometry>
        </mxCell>
        <mxCell id="ZMU3HacW1rTmlklIENHG-40" value="" style="edgeStyle=orthogonalEdgeStyle;rounded=0;orthogonalLoop=1;jettySize=auto;html=1;" edge="1" parent="1" source="ZMU3HacW1rTmlklIENHG-28" target="ZMU3HacW1rTmlklIENHG-39">
          <mxGeometry relative="1" as="geometry" />
        </mxCell>
        <mxCell id="ZMU3HacW1rTmlklIENHG-54" value="TRUE" style="edgeLabel;html=1;align=center;verticalAlign=middle;resizable=0;points=[];" vertex="1" connectable="0" parent="ZMU3HacW1rTmlklIENHG-40">
          <mxGeometry x="-0.0843" relative="1" as="geometry">
            <mxPoint as="offset" />
          </mxGeometry>
        </mxCell>
        <mxCell id="ZMU3HacW1rTmlklIENHG-28" value="N % 2 == 0&lt;div&gt;AND&lt;/div&gt;&lt;div&gt;N &amp;gt; 20&lt;/div&gt;" style="rhombus;whiteSpace=wrap;html=1;" vertex="1" parent="1">
          <mxGeometry x="734" y="1030" width="126" height="80" as="geometry" />
        </mxCell>
        <mxCell id="ZMU3HacW1rTmlklIENHG-43" style="edgeStyle=orthogonalEdgeStyle;rounded=0;orthogonalLoop=1;jettySize=auto;html=1;exitX=0.5;exitY=0;exitDx=0;exitDy=0;entryX=0.5;entryY=1;entryDx=0;entryDy=0;" edge="1" parent="1" source="ZMU3HacW1rTmlklIENHG-30" target="ZMU3HacW1rTmlklIENHG-44">
          <mxGeometry relative="1" as="geometry">
            <mxPoint x="797" y="756.0000610351562" as="targetPoint" />
          </mxGeometry>
        </mxCell>
        <mxCell id="ZMU3HacW1rTmlklIENHG-30" value="I += 1" style="whiteSpace=wrap;html=1;" vertex="1" parent="1">
          <mxGeometry x="737" y="900" width="120" height="60" as="geometry" />
        </mxCell>
        <mxCell id="ZMU3HacW1rTmlklIENHG-36" value="" style="edgeStyle=orthogonalEdgeStyle;rounded=0;orthogonalLoop=1;jettySize=auto;html=1;" edge="1" parent="1" source="ZMU3HacW1rTmlklIENHG-32" target="ZMU3HacW1rTmlklIENHG-35">
          <mxGeometry relative="1" as="geometry" />
        </mxCell>
        <mxCell id="ZMU3HacW1rTmlklIENHG-32" value="PARI_MAGGIORI = 0" style="whiteSpace=wrap;html=1;" vertex="1" parent="1">
          <mxGeometry x="354" y="130" width="120" height="60" as="geometry" />
        </mxCell>
        <mxCell id="ZMU3HacW1rTmlklIENHG-37" style="edgeStyle=orthogonalEdgeStyle;rounded=0;orthogonalLoop=1;jettySize=auto;html=1;exitX=0.5;exitY=1;exitDx=0;exitDy=0;entryX=0.5;entryY=0;entryDx=0;entryDy=0;" edge="1" parent="1" source="ZMU3HacW1rTmlklIENHG-35" target="ZMU3HacW1rTmlklIENHG-2">
          <mxGeometry relative="1" as="geometry" />
        </mxCell>
        <mxCell id="ZMU3HacW1rTmlklIENHG-35" value="NEGATIVI_DISPARI= 0" style="whiteSpace=wrap;html=1;" vertex="1" parent="1">
          <mxGeometry x="330" y="230" width="170" height="60" as="geometry" />
        </mxCell>
        <mxCell id="ZMU3HacW1rTmlklIENHG-42" value="" style="edgeStyle=orthogonalEdgeStyle;rounded=0;orthogonalLoop=1;jettySize=auto;html=1;" edge="1" parent="1" source="ZMU3HacW1rTmlklIENHG-39" target="ZMU3HacW1rTmlklIENHG-41">
          <mxGeometry relative="1" as="geometry" />
        </mxCell>
        <mxCell id="ZMU3HacW1rTmlklIENHG-39" value="PARI_MAGGIORI += 1" style="whiteSpace=wrap;html=1;" vertex="1" parent="1">
          <mxGeometry x="943" y="1040" width="147" height="60" as="geometry" />
        </mxCell>
        <mxCell id="ZMU3HacW1rTmlklIENHG-45" style="edgeStyle=orthogonalEdgeStyle;rounded=0;orthogonalLoop=1;jettySize=auto;html=1;exitX=0.5;exitY=0;exitDx=0;exitDy=0;entryX=1;entryY=0.5;entryDx=0;entryDy=0;" edge="1" parent="1" source="ZMU3HacW1rTmlklIENHG-41" target="ZMU3HacW1rTmlklIENHG-44">
          <mxGeometry relative="1" as="geometry" />
        </mxCell>
        <mxCell id="ZMU3HacW1rTmlklIENHG-41" value="I += 1" style="whiteSpace=wrap;html=1;" vertex="1" parent="1">
          <mxGeometry x="956.5" y="900" width="120" height="60" as="geometry" />
        </mxCell>
        <mxCell id="ZMU3HacW1rTmlklIENHG-46" style="edgeStyle=orthogonalEdgeStyle;rounded=0;orthogonalLoop=1;jettySize=auto;html=1;exitX=0;exitY=0.5;exitDx=0;exitDy=0;entryX=1;entryY=0.5;entryDx=0;entryDy=0;" edge="1" parent="1" source="ZMU3HacW1rTmlklIENHG-44" target="ZMU3HacW1rTmlklIENHG-19">
          <mxGeometry relative="1" as="geometry" />
        </mxCell>
        <mxCell id="ZMU3HacW1rTmlklIENHG-44" value="" style="ellipse;whiteSpace=wrap;html=1;aspect=fixed;" vertex="1" parent="1">
          <mxGeometry x="787" y="760" width="20" height="20" as="geometry" />
        </mxCell>
        <mxCell id="ZMU3HacW1rTmlklIENHG-50" value="" style="edgeStyle=orthogonalEdgeStyle;rounded=0;orthogonalLoop=1;jettySize=auto;html=1;" edge="1" parent="1" source="ZMU3HacW1rTmlklIENHG-47" target="ZMU3HacW1rTmlklIENHG-49">
          <mxGeometry relative="1" as="geometry" />
        </mxCell>
        <mxCell id="ZMU3HacW1rTmlklIENHG-47" value="NEGATIVI += 1" style="whiteSpace=wrap;html=1;" vertex="1" parent="1">
          <mxGeometry x="354" y="1200" width="120" height="60" as="geometry" />
        </mxCell>
        <mxCell id="ZMU3HacW1rTmlklIENHG-52" value="" style="edgeStyle=orthogonalEdgeStyle;rounded=0;orthogonalLoop=1;jettySize=auto;html=1;" edge="1" parent="1" source="ZMU3HacW1rTmlklIENHG-49" target="ZMU3HacW1rTmlklIENHG-51">
          <mxGeometry relative="1" as="geometry" />
        </mxCell>
        <mxCell id="ZMU3HacW1rTmlklIENHG-53" value="FALSE" style="edgeLabel;html=1;align=center;verticalAlign=middle;resizable=0;points=[];" vertex="1" connectable="0" parent="ZMU3HacW1rTmlklIENHG-52">
          <mxGeometry x="-0.2159" relative="1" as="geometry">
            <mxPoint as="offset" />
          </mxGeometry>
        </mxCell>
        <mxCell id="ZMU3HacW1rTmlklIENHG-56" value="" style="edgeStyle=orthogonalEdgeStyle;rounded=0;orthogonalLoop=1;jettySize=auto;html=1;" edge="1" parent="1" source="ZMU3HacW1rTmlklIENHG-49" target="ZMU3HacW1rTmlklIENHG-55">
          <mxGeometry relative="1" as="geometry">
            <Array as="points">
              <mxPoint x="413" y="1530" />
            </Array>
          </mxGeometry>
        </mxCell>
        <mxCell id="ZMU3HacW1rTmlklIENHG-57" value="TRUE" style="edgeLabel;html=1;align=center;verticalAlign=middle;resizable=0;points=[];" vertex="1" connectable="0" parent="ZMU3HacW1rTmlklIENHG-56">
          <mxGeometry x="-0.8207" y="5" relative="1" as="geometry">
            <mxPoint as="offset" />
          </mxGeometry>
        </mxCell>
        <mxCell id="ZMU3HacW1rTmlklIENHG-49" value="N % 2 == 10&lt;div&gt;OR&lt;/div&gt;&lt;div&gt;N &amp;lt; -10&lt;/div&gt;" style="rhombus;whiteSpace=wrap;html=1;" vertex="1" parent="1">
          <mxGeometry x="345" y="1330" width="136" height="80" as="geometry" />
        </mxCell>
        <mxCell id="ZMU3HacW1rTmlklIENHG-60" style="edgeStyle=orthogonalEdgeStyle;rounded=0;orthogonalLoop=1;jettySize=auto;html=1;exitX=0;exitY=0.5;exitDx=0;exitDy=0;entryX=1;entryY=1;entryDx=0;entryDy=0;" edge="1" parent="1" source="ZMU3HacW1rTmlklIENHG-51" target="ZMU3HacW1rTmlklIENHG-58">
          <mxGeometry relative="1" as="geometry" />
        </mxCell>
        <mxCell id="ZMU3HacW1rTmlklIENHG-51" value="I += 1" style="whiteSpace=wrap;html=1;" vertex="1" parent="1">
          <mxGeometry x="137" y="1340" width="120" height="60" as="geometry" />
        </mxCell>
        <mxCell id="ZMU3HacW1rTmlklIENHG-59" style="edgeStyle=orthogonalEdgeStyle;rounded=0;orthogonalLoop=1;jettySize=auto;html=1;exitX=0;exitY=0.5;exitDx=0;exitDy=0;entryX=0.5;entryY=1;entryDx=0;entryDy=0;" edge="1" parent="1" source="ZMU3HacW1rTmlklIENHG-55" target="ZMU3HacW1rTmlklIENHG-58">
          <mxGeometry relative="1" as="geometry" />
        </mxCell>
        <mxCell id="ZMU3HacW1rTmlklIENHG-55" value="I += 1" style="whiteSpace=wrap;html=1;" vertex="1" parent="1">
          <mxGeometry x="137" y="1480" width="120" height="60" as="geometry" />
        </mxCell>
        <mxCell id="ZMU3HacW1rTmlklIENHG-61" style="edgeStyle=orthogonalEdgeStyle;rounded=0;orthogonalLoop=1;jettySize=auto;html=1;exitX=0.5;exitY=0;exitDx=0;exitDy=0;entryX=0;entryY=0.5;entryDx=0;entryDy=0;" edge="1" parent="1" source="ZMU3HacW1rTmlklIENHG-58" target="ZMU3HacW1rTmlklIENHG-19">
          <mxGeometry relative="1" as="geometry" />
        </mxCell>
        <mxCell id="ZMU3HacW1rTmlklIENHG-58" value="" style="ellipse;whiteSpace=wrap;html=1;aspect=fixed;" vertex="1" parent="1">
          <mxGeometry x="50" y="1070" width="20" height="20" as="geometry" />
        </mxCell>
        <mxCell id="ZMU3HacW1rTmlklIENHG-69" value="" style="edgeStyle=orthogonalEdgeStyle;rounded=0;orthogonalLoop=1;jettySize=auto;html=1;" edge="1" parent="1" source="ZMU3HacW1rTmlklIENHG-63" target="ZMU3HacW1rTmlklIENHG-68">
          <mxGeometry relative="1" as="geometry" />
        </mxCell>
        <mxCell id="ZMU3HacW1rTmlklIENHG-63" value="WRITE POSITIVI" style="shape=parallelogram;perimeter=parallelogramPerimeter;whiteSpace=wrap;html=1;fixedSize=1;" vertex="1" parent="1">
          <mxGeometry x="614" y="610" width="120" height="60" as="geometry" />
        </mxCell>
        <mxCell id="ZMU3HacW1rTmlklIENHG-71" value="" style="edgeStyle=orthogonalEdgeStyle;rounded=0;orthogonalLoop=1;jettySize=auto;html=1;" edge="1" parent="1" source="ZMU3HacW1rTmlklIENHG-68" target="ZMU3HacW1rTmlklIENHG-70">
          <mxGeometry relative="1" as="geometry" />
        </mxCell>
        <mxCell id="ZMU3HacW1rTmlklIENHG-68" value="WRITE NEGATIVI" style="shape=parallelogram;perimeter=parallelogramPerimeter;whiteSpace=wrap;html=1;fixedSize=1;" vertex="1" parent="1">
          <mxGeometry x="814" y="610" width="146" height="60" as="geometry" />
        </mxCell>
        <mxCell id="ZMU3HacW1rTmlklIENHG-73" value="" style="edgeStyle=orthogonalEdgeStyle;rounded=0;orthogonalLoop=1;jettySize=auto;html=1;" edge="1" parent="1" source="ZMU3HacW1rTmlklIENHG-70" target="ZMU3HacW1rTmlklIENHG-72">
          <mxGeometry relative="1" as="geometry" />
        </mxCell>
        <mxCell id="ZMU3HacW1rTmlklIENHG-70" value="WRITE PARI_MAGGIORI" style="shape=parallelogram;perimeter=parallelogramPerimeter;whiteSpace=wrap;html=1;fixedSize=1;" vertex="1" parent="1">
          <mxGeometry x="1040" y="610" width="200" height="60" as="geometry" />
        </mxCell>
        <mxCell id="ZMU3HacW1rTmlklIENHG-75" style="edgeStyle=orthogonalEdgeStyle;rounded=0;orthogonalLoop=1;jettySize=auto;html=1;exitX=1;exitY=0.5;exitDx=0;exitDy=0;entryX=0;entryY=0.5;entryDx=0;entryDy=0;" edge="1" parent="1" source="ZMU3HacW1rTmlklIENHG-72" target="ZMU3HacW1rTmlklIENHG-74">
          <mxGeometry relative="1" as="geometry" />
        </mxCell>
        <mxCell id="ZMU3HacW1rTmlklIENHG-72" value="WRITE DISPARI_MINORI" style="shape=parallelogram;perimeter=parallelogramPerimeter;whiteSpace=wrap;html=1;fixedSize=1;" vertex="1" parent="1">
          <mxGeometry x="1320" y="610" width="200" height="60" as="geometry" />
        </mxCell>
        <mxCell id="ZMU3HacW1rTmlklIENHG-74" value="END" style="ellipse;whiteSpace=wrap;html=1;" vertex="1" parent="1">
          <mxGeometry x="1590" y="600" width="120" height="80" as="geometry" />
        </mxCell>
      </root>
    </mxGraphModel>
  </diagram>
</mxfile>
